<?xml version="1.0" encoding="utf-8"?>
<!-- Generator: Adobe Illustrator 19.0.0, SVG Export Plug-In . SVG Version: 6.00 Build 0)  -->
<svg version="1.1" id="visual" xmlns="http://www.w3.org/2000/svg" xmlns:xlink="http://www.w3.org/1999/xlink" x="0px" y="0px"
	 viewBox="480 -260 1920 397" style="enable-background:new 480 -260 1920 397;" xml:space="preserve">
<style type="text/css">
	.st0{fill:#282B33;}
</style>
<path class="st0" d="M480-260l45.7,3c45.6,3,137,9,228.5,29.8c91.5,20.9,183.1,56.5,274.6,52.4c91.5-4.2,182.9-48.2,274.2-37.5
	c91.3,10.6,182.7,76,274,77.5s182.7-60.9,274.2-58.9s183.1,68.4,274.6,69.4s182.9-63.4,228.5-95.5L2400-252v389h-45.7
	c-45.6,0-137,0-228.5,0s-183.1,0-274.6,0s-182.9,0-274.2,0s-182.7,0-274,0s-182.7,0-274.2,0s-183.1,0-274.6,0s-182.9,0-228.5,0H480
	V-260z"/>
</svg>
