<?xml version="1.0" encoding="utf-8"?>
<!-- Generator: Adobe Illustrator 19.0.0, SVG Export Plug-In . SVG Version: 6.00 Build 0)  -->
<svg version="1.1" id="visual" xmlns="http://www.w3.org/2000/svg" xmlns:xlink="http://www.w3.org/1999/xlink" x="0px" y="0px"
	 viewBox="480 81 1920 368" style="enable-background:new 480 81 1920 368;" xml:space="preserve">
<style type="text/css">
	.st0{fill:#684DD4;}
</style>
<path class="st0" d="M2400,449h-64c-64,0-192,0-320,0s-256,0-384,0s-256,0-384,0s-256,0-384,0s-256,0-320,0h-64V151.1l64-8.1
	c64-8.2,192-24.4,320-24.6c128-0.2,256,15.9,384,38.1c128,22.3,256,50.9,384,53.7c128,2.8,256-20.3,384-46.1s256-54.4,320-68.7
	l64-14.3V449z"/>
</svg>
