<?xml version="1.0" encoding="utf-8"?>
<!-- Generator: Adobe Illustrator 19.0.0, SVG Export Plug-In . SVG Version: 6.00 Build 0)  -->
<svg version="1.1" id="visual" xmlns="http://www.w3.org/2000/svg" xmlns:xlink="http://www.w3.org/1999/xlink" x="0px" y="0px"
	 viewBox="480 -260 1920 201" style="enable-background:new 480 -260 1920 201;" xml:space="preserve">
<style type="text/css">
	.st0{fill:#684DD4;}
</style>
<path class="st0" d="M480-258l45.7,10c45.6,10,137,30,228.5,38.7c91.5,8.6,183.1,6,274.6,10.1c91.5,4.2,182.9,15.2,274.2,19.4
	c91.3,4.1,182.7,1.5,274-6.7s182.7-21.8,274.2-17.3s183.1,27.1,274.6,20.8s182.9-41.7,228.5-59.3L2400-260v201h-45.7
	c-45.6,0-137,0-228.5,0s-183.1,0-274.6,0s-182.9,0-274.2,0s-182.7,0-274,0s-182.7,0-274.2,0s-183.1,0-274.6,0s-182.9,0-228.5,0H480
	V-258z"/>
</svg>
