<?xml version="1.0" encoding="utf-8"?>
<!-- Generator: Adobe Illustrator 19.0.0, SVG Export Plug-In . SVG Version: 6.00 Build 0)  -->
<svg version="1.1" id="visual" xmlns="http://www.w3.org/2000/svg" xmlns:xlink="http://www.w3.org/1999/xlink" x="0px" y="0px"
	 viewBox="480 -260 1920 371" style="enable-background:new 480 -260 1920 371;" xml:space="preserve">
<style type="text/css">
	.st0{fill:#E1E1E1;}
</style>
<path class="st0" d="M480-210l45.7-7.5c45.6-7.5,137-22.5,228.5-21.5s183.1,18,274.6,40.3c91.5,22.4,182.9,50,274.2,41.7
	s182.7-52.7,274-63s182.7,13.3,274.2,26.2c91.5,12.8,183.1,14.8,274.6,2c91.5-12.9,182.9-40.5,228.5-54.4L2400-260v371h-45.7
	c-45.6,0-137,0-228.5,0s-183.1,0-274.6,0s-182.9,0-274.2,0s-182.7,0-274,0s-182.7,0-274.2,0s-183.1,0-274.6,0s-182.9,0-228.5,0H480
	V-210z"/>
</svg>
